<svg xmlns="http://www.w3.org/2000/svg" xmlns:xlink="http://www.w3.org/1999/xlink" width="80" height="80" viewBox="0 0 80 80"><defs><linearGradient id="a" x1="0.5" x2="0.5" y2="1" gradientUnits="objectBoundingBox"><stop offset="0" stop-color="#c3ffa5"/><stop offset="1" stop-color="#bcffbc"/></linearGradient></defs><rect width="80" height="80" rx="20" fill="url(#a)"/><path d="M37.652,35.065,36,35.65l-1.712.48-1.747.393-1.79.3-1.811.21-1.839.1-1.1.017-1.249-.026-1.235-.061L22.3,36.951,21.1,36.8l-1.179-.192-1.151-.227-1.137-.271-1.109-.306-1.074-.332-1.06-.375-1.025-.419-1-.445-.961-.471L9.588,32.717l-.856-.559-.828-.6-.779-.62-.751-.655-.7-.664-.653-.7L4.4,28.2l-.568-.751-.519-.76-.477-.777-.422-.8-.372-.822-.309-.82-.267-.855-.2-.865-.154-.881-.091-.882L.99,19.081l.028-.908.091-.882.154-.882.2-.864.267-.856.309-.821.372-.821.421-.8.477-.786.519-.751L4.4,9.958l.618-.716.653-.7.7-.664.751-.655.779-.62L8.73,6l.856-.567L11.411,4.4l.961-.471,1-.445,1.025-.419,1.06-.375,1.074-.34,1.109-.3,1.137-.271,1.151-.227L21.1,1.358,22.3,1.21,23.51,1.1l1.233-.061,1.249-.026,1.242.026,1.235.061,1.214.113,1.193.148,1.179.192,1.151.227,1.137.271,1.109.3,1.074.34,1.06.375,1.025.419,1,.445.961.471,1.825,1.039L43.249,6l.828.6.779.62.751.655.7.664.653.7.618.716.568.751.519.751.477.786.421.8.372.821.309.821.267.856.2.864.154.882.091.882.028.908-.028.873-.077.856-.133.856-.182.829-.232.829-.288.794-.526,1.187-.646,1.152-.758,1.109-.877,1.083-.983,1.03-.716.681-1.6,1.3-.035-.044,4.653,14.4L37.635,35.05l.014.017Z" transform="translate(13.51 19.491)" fill="#707070" stroke="#707070" stroke-linecap="round" stroke-linejoin="round" stroke-width="2" fill-rule="evenodd"/></svg>