<svg xmlns="http://www.w3.org/2000/svg" xmlns:xlink="http://www.w3.org/1999/xlink" width="80" height="80" viewBox="0 0 80 80"><defs><linearGradient id="a" x1="0.5" x2="0.5" y2="1" gradientUnits="objectBoundingBox"><stop offset="0" stop-color="#d8beff"/><stop offset="1" stop-color="#f7e7ff"/></linearGradient></defs><rect width="80" height="80" rx="20" fill="url(#a)"/><g transform="translate(-30 -276)"><g transform="translate(50 291)" fill="none" stroke-linecap="round"><path d="M36,51H4a4,4,0,0,1-4-4V5A4,4,0,0,1,4,1H36a4,4,0,0,1,4,4V47A4,4,0,0,1,36,51ZM20.5,47A1.5,1.5,0,1,0,22,48.5,1.5,1.5,0,0,0,20.5,47Z" stroke="none"/><path d="M 34.99959945678711 46.00030136108398 L 34.99959945678711 5.999901294708252 L 4.999999523162842 5.999901294708252 L 4.999999523162842 46.00030136108398 L 14.49975204467773 46.00030136108398 C 15.4812183380127 43.65322875976563 17.80127143859863 41.99980163574219 20.50020027160645 41.99980163574219 C 23.19875144958496 41.99980163574219 25.51848411560059 43.65322875976563 26.49981689453125 46.00030136108398 L 34.99959945678711 46.00030136108398 M 36 51.00030136108398 L 3.999599695205688 51.00030136108398 C 1.79421079158783 51.00030136108398 -2.716064386731887e-07 49.2056770324707 -2.716064386731887e-07 46.99980163574219 L -2.716064386731887e-07 5.000401020050049 C -2.716064386731887e-07 2.794523239135742 1.79421079158783 0.9999011158943176 3.999599695205688 0.9999011158943176 L 36 0.9999011158943176 C 38.20538711547852 0.9999011158943176 39.99959945678711 2.794523239135742 39.99959945678711 5.000401020050049 L 39.99959945678711 46.99980163574219 C 39.99959945678711 49.2056770324707 38.20538711547852 51.00030136108398 36 51.00030136108398 Z M 20.50020027160645 46.99980163574219 C 19.67293357849121 46.99980163574219 18.99989891052246 47.67283630371094 18.99989891052246 48.50009918212891 C 18.99989891052246 49.32736587524414 19.67293357849121 50.00040054321289 20.50020027160645 50.00040054321289 C 21.32696723937988 50.00040054321289 21.99959945678711 49.32736587524414 21.99959945678711 48.50009918212891 C 21.99959945678711 47.67283630371094 21.32696723937988 46.99980163574219 20.50020027160645 46.99980163574219 Z" stroke="none" fill="#707070"/></g><line x2="25" transform="translate(57.5 301.5)" fill="none" stroke="#707070" stroke-linecap="round" stroke-width="1"/><line x2="25" transform="translate(57.5 316.5)" fill="none" stroke="#707070" stroke-linecap="round" stroke-width="1"/><line x2="25" transform="translate(57.5 321.5)" fill="none" stroke="#707070" stroke-linecap="round" stroke-width="1"/><line x2="19" transform="translate(57.5 306.5)" fill="none" stroke="#707070" stroke-linecap="round" stroke-width="1"/><line x2="21" transform="translate(57.5 311.5)" fill="none" stroke="#707070" stroke-linecap="round" stroke-width="1"/><line x2="21" transform="translate(57.5 326.5)" fill="none" stroke="#707070" stroke-linecap="round" stroke-width="1"/><g transform="translate(54 333)" fill="#707070" stroke="#707070" stroke-width="1"><rect width="32" height="5" stroke="none"/><rect x="0.5" y="0.5" width="31" height="4" fill="none"/></g></g></svg>