<svg xmlns="http://www.w3.org/2000/svg" xmlns:xlink="http://www.w3.org/1999/xlink" width="80" height="80" viewBox="0 0 80 80"><defs><linearGradient id="a" x1="0.5" x2="0.5" y2="1" gradientUnits="objectBoundingBox"><stop offset="0" stop-color="#ffa8a8"/><stop offset="1" stop-color="#fed1d1"/></linearGradient></defs><rect width="80" height="80" rx="20" fill="url(#a)"/><path d="M52,24.917V33.25a2.083,2.083,0,1,1-4.167,0s.25-2.083-4.167-2.083H39.5V41.583a2.084,2.084,0,0,1-2.083,2.083H4.083A2.084,2.084,0,0,1,2,41.583V24.917a2.084,2.084,0,0,1,2.083-2.083H37.417A2.084,2.084,0,0,1,39.5,24.917V27h4.167c4.417,0,4.167-2.083,4.167-2.083a2.083,2.083,0,1,1,4.167,0ZM10.333,6.167A8.333,8.333,0,1,0,18.667,14.5,8.333,8.333,0,0,0,10.333,6.167Zm0,12.5A4.167,4.167,0,1,1,14.5,14.5,4.167,4.167,0,0,1,10.333,18.667ZM29.083,2A10.417,10.417,0,1,0,39.5,12.417,10.417,10.417,0,0,0,29.083,2Zm0,16.667a6.25,6.25,0,1,1,6.25-6.25A6.25,6.25,0,0,1,29.083,18.667Z" transform="translate(17 14)" fill="#707070"/></svg>