<svg xmlns="http://www.w3.org/2000/svg" xmlns:xlink="http://www.w3.org/1999/xlink" width="80" height="80" viewBox="0 0 80 80"><defs><linearGradient id="a" x1="0.5" x2="0.5" y2="1" gradientUnits="objectBoundingBox"><stop offset="0" stop-color="#68ffef"/><stop offset="1" stop-color="#e2fffb"/></linearGradient></defs><rect width="80" height="80" rx="20" fill="url(#a)"/><g transform="translate(-347.546 -398.725)"><path d="M387.546,414.725c-1.051.607-2.979,2.972-3.468,6.7a96.515,96.515,0,0,0-.533,9.847l-19.807,7.255-1.191,4.445,21.082-1.757c.108,3.747.308,7.951.639,12.6l-5,3.146-1.191,4.445,9.468-2.314,9.468,2.314-1.191-4.445-5-3.146c.331-4.649.53-8.853.639-12.6l21.082,1.757-1.191-4.445-19.807-7.255a96.525,96.525,0,0,0-.533-9.847c-.489-3.724-2.417-6.089-3.468-6.7Z" fill="#707070"/></g></svg>