<svg xmlns="http://www.w3.org/2000/svg" xmlns:xlink="http://www.w3.org/1999/xlink" width="80" height="80" viewBox="0 0 80 80"><defs><linearGradient id="a" x1="0.5" x2="0.5" y2="1" gradientUnits="objectBoundingBox"><stop offset="0" stop-color="#fff4aa"/><stop offset="1" stop-color="#fff9d3"/></linearGradient></defs><rect width="80" height="80" rx="20" fill="url(#a)"/><path d="M46.455,6H5.545A4.559,4.559,0,0,0,1,10.545V28.727a4.559,4.559,0,0,0,4.545,4.545H46.455A4.559,4.559,0,0,0,51,28.727V10.545A4.559,4.559,0,0,0,46.455,6ZM23.727,21.909H16.909v6.818H12.364V21.909H5.545V17.364h6.818V10.545h4.545v6.818h6.818Zm10.227,4.545a3.409,3.409,0,1,1,3.409-3.409A3.409,3.409,0,0,1,33.955,26.455Zm9.091-6.818a3.409,3.409,0,1,1,3.409-3.409A3.409,3.409,0,0,1,43.045,19.636Z" transform="translate(14 20)" fill="#707070"/></svg>