<svg xmlns="http://www.w3.org/2000/svg" xmlns:xlink="http://www.w3.org/1999/xlink" width="80" height="80" viewBox="0 0 80 80"><defs><linearGradient id="a" x1="0.5" x2="0.5" y2="1" gradientUnits="objectBoundingBox"><stop offset="0" stop-color="#d4d4d4"/><stop offset="1" stop-color="#f0eeee"/></linearGradient></defs><rect width="80" height="80" rx="20" fill="url(#a)"/><g transform="translate(-150.798 -190.928) rotate(-11)"><path d="M139.111,235.15c-2.266,9.854-4.825,21.895-7.091,31.75-8.444-5.846-14.332-1.095-13.481,5.6.546,4.294,8.077,8.892,15.264,1.882,1.336-6.534,3.741-17.305,5.563-25.759l13.312,9.447c-1.359,6.124-2.694,12.208-4.156,18.566-8.444-5.846-14.339-1.1-13.487,5.6.546,4.294,8.079,8.885,15.266,1.875l8.156-35.348-.163-.04.017-.021C157.143,247.772,140.275,235.446,139.111,235.15Zm1.59,7.3,13.323,9.627c-.2.9-.4,1.786-.6,2.676l-13.33-9.506C140.267,244.426,140.556,243.155,140.7,242.446Z" transform="translate(2.945 0.572)" fill="#707070"/></g></svg>