<svg xmlns="http://www.w3.org/2000/svg" xmlns:xlink="http://www.w3.org/1999/xlink" width="80" height="80" viewBox="0 0 80 80"><defs><linearGradient id="a" x1="0.5" x2="0.5" y2="1" gradientUnits="objectBoundingBox"><stop offset="0" stop-color="#ffbb94"/><stop offset="1" stop-color="#fcf1e5"/></linearGradient></defs><rect width="80" height="80" rx="20" fill="url(#a)"/><g transform="translate(-134.614 -167.94)"><path d="M173.123,620.93a13.707,13.707,0,0,1-27.413,0h0" transform="translate(14.904 -408.661)" fill="rgba(0,0,0,0)" stroke="#707070" stroke-linecap="round" stroke-width="2" opacity="0.99"/><path d="M173.123,620.93a13.707,13.707,0,0,1-27.413,0h0" transform="translate(14.904 -408.661)" fill="rgba(0,0,0,0)" stroke="#707070" stroke-linecap="round" stroke-width="2" opacity="0.99"/><path d="M372.05,832.36v7.409" transform="translate(-197.729 -606.384)" fill="none" stroke="#707070" stroke-width="2"/><path d="M197.14,888.867c0-1.228,3.856-2.223,8.613-2.223s8.613,1,8.613,2.223Z" transform="translate(-31.432 -654.927)" fill="#707070" stroke="#707070" stroke-linecap="round" stroke-width="2" opacity="0.99"/><path d="M241.632,183.94a9.042,9.042,0,0,0-9.042,9.042v18.775a9.041,9.041,0,1,0,18.081,0V192.982A9.04,9.04,0,0,0,241.632,183.94Z" transform="translate(-67.31)" fill="#707070" stroke="#707070" stroke-linecap="round" stroke-width="2" opacity="0.99"/></g></svg>