<svg xmlns="http://www.w3.org/2000/svg" xmlns:xlink="http://www.w3.org/1999/xlink" width="80" height="80" viewBox="0 0 80 80"><defs><clipPath id="a"><rect width="80" height="80" rx="20" transform="translate(98 201)" fill="#707070" stroke="#707070" stroke-width="1"/></clipPath></defs><g transform="translate(-98 -201)" clip-path="url(#a)"><g transform="translate(-148.244 205.406)"><path d="M286.244-3.43a39.2,39.2,0,0,0-7.8.793V3.4A32.715,32.715,0,0,0,269,7.3l-4.273-4.268a39.586,39.586,0,0,0-6.039,5,39.1,39.1,0,0,0-5,6.037l4.263,4.268a32.954,32.954,0,0,0-3.9,9.451H248.02a38.472,38.472,0,0,0,0,15.61h6.029a32.971,32.971,0,0,0,3.9,9.452l-4.263,4.268a39.151,39.151,0,0,0,5,6.036,39.586,39.586,0,0,0,6.039,5L269,63.887a32.7,32.7,0,0,0,9.444,3.9v6.037a38.844,38.844,0,0,0,15.61,0V67.789a32.757,32.757,0,0,0,9.454-3.9l4.273,4.268a39.042,39.042,0,0,0,6.029-5,39.208,39.208,0,0,0,5-6.036l-4.273-4.268a32.7,32.7,0,0,0,3.9-9.452h6.039a38.939,38.939,0,0,0,0-15.61h-6.039a32.681,32.681,0,0,0-3.9-9.451l4.273-4.268a39.159,39.159,0,0,0-5-6.037,39.043,39.043,0,0,0-6.029-5L303.5,7.3a32.774,32.774,0,0,0-9.454-3.9V-2.637a39.123,39.123,0,0,0-7.8-.793Zm0,19.512a19.512,19.512,0,1,1-19.512,19.512A19.519,19.519,0,0,1,286.244,16.082Z" fill="#707070" stroke="#707070" stroke-linecap="round" stroke-linejoin="round" stroke-dashoffset="162" stroke-width="1.951"/></g></g></svg>