<svg xmlns="http://www.w3.org/2000/svg" xmlns:xlink="http://www.w3.org/1999/xlink" width="80" height="80" viewBox="0 0 80 80"><defs><linearGradient id="a" x1="0.5" x2="0.5" y2="1" gradientUnits="objectBoundingBox"><stop offset="0" stop-color="#b4ffc5"/><stop offset="1" stop-color="#eefff2"/></linearGradient></defs><rect width="80" height="80" rx="20" fill="url(#a)"/><path d="M49.219,17.8h-7.23L40.448,8.6a7.9,7.9,0,0,0-5.57-5.886A14.853,14.853,0,0,0,30.611,2H21.762a14.853,14.853,0,0,0-4.267.711A7.9,7.9,0,0,0,11.925,8.6l-1.541,9.2H3.154a1.976,1.976,0,0,0-1.9,2.568L8.685,45.259h0a5.926,5.926,0,0,0,5.649,4.148h23.7a5.926,5.926,0,0,0,5.61-4.148h0L51.075,20.37A1.975,1.975,0,0,0,49.219,17.8Zm-34.805,0L15.836,9.23a3.6,3.6,0,0,1,2.923-2.765,11.251,11.251,0,0,1,3-.514h8.849a11.254,11.254,0,0,1,3.042.514A3.6,3.6,0,0,1,36.577,9.23L37.959,17.8H14.413Z" transform="translate(13.833 15)" fill="#707070"/></svg>