<svg xmlns="http://www.w3.org/2000/svg" width="80" height="74.075" viewBox="0 0 80 74.075"><g transform="translate(30 668.723)" fill="#fff" stroke-linecap="round"><path d="M -17.4435977935791 -597.1862182617188 C -19.80496788024902 -597.886474609375 -21.97388458251953 -599.2552490234375 -23.75871467590332 -601.2053833007813 C -24.66960525512695 -602.2006225585938 -25.44404983520508 -603.30615234375 -26.07207679748535 -604.4954223632813 C -24.04818344116211 -601.1221313476563 -21.01748847961426 -598.5186157226563 -17.4435977935791 -597.1862182617188 Z" stroke="none"/><path d="M 21.52529907226563 -594.6480102539063 L -13.72859382629395 -594.6480102539063 C -18.0748348236084 -594.6480102539063 -22.1609001159668 -596.4972534179688 -25.23408699035645 -599.8551025390625 C -28.3072338104248 -603.2128295898438 -29.99970054626465 -607.6771850585938 -29.99970054626465 -612.4257202148438 L -29.99970054626465 -650.94482421875 C -29.99970054626465 -655.693359375 -28.3072338104248 -660.15771484375 -25.23408699035645 -663.5154418945313 C -22.1609001159668 -666.873291015625 -18.0748348236084 -668.7225341796875 -13.72859382629395 -668.7225341796875 L 21.52529907226563 -668.7225341796875 L 37.79640579223633 -668.7225341796875 L 37.79640579223633 -665.463623046875 L 20.02229881286621 -665.463623046875 L -11.98979377746582 -665.463623046875 C -20.13692665100098 -665.463623046875 -26.76510047912598 -658.22216796875 -26.76510047912598 -649.3212280273438 L -26.76510047912598 -614.3453979492188 C -26.76510047912598 -605.4439697265625 -20.13692665100098 -598.2020874023438 -11.98979377746582 -598.2020874023438 L 20.02229881286621 -598.2020874023438 C 22.85957908630371 -598.2020874023438 26.28557968139648 -598.210693359375 29.59877967834473 -598.2189331054688 C 32.65602111816406 -598.2265625 35.5437126159668 -598.2337646484375 37.79640579223633 -598.2340698242188 L 37.79640579223633 -594.649169921875 C 37.62996673583984 -594.6724243164063 36.87253952026367 -594.6832275390625 35.33937835693359 -594.6832275390625 C 34.19305801391602 -594.6832275390625 32.66904449462891 -594.6773071289063 30.90437889099121 -594.6705322265625 L 30.88917922973633 -594.6704711914063 C 28.30085945129395 -594.6604614257813 25.07961845397949 -594.6480102539063 21.52529907226563 -594.6480102539063 Z" stroke="none" fill="#707070"/></g><path d="M0,74.074" transform="translate(67.118 0)" fill="none" stroke="#fff" stroke-linecap="round" stroke-width="10"/><line x2="40.678" transform="translate(34.576 37.778)" fill="none" stroke="#707070" stroke-linecap="round" stroke-width="3"/><g transform="translate(80 29.63) rotate(90)" fill="#707070" stroke-linecap="round"><path d="M 14.61050891876221 14.41525745391846 L 1.685788512229919 14.41525745391846 C 1.428778529167175 14.41525745391846 1.29943859577179 14.24398803710938 1.25575852394104 14.17034816741943 C 1.21207857131958 14.09671783447266 1.123778581619263 13.90109825134277 1.246988534927368 13.67554759979248 L 7.709348678588867 1.846137881278992 C 7.837688446044922 1.611207842826843 8.058968544006348 1.585847854614258 8.148148536682129 1.585847854614258 C 8.23732852935791 1.585847854614258 8.458598136901855 1.611207842826843 8.586928367614746 1.846137881278992 L 15.04930877685547 13.67554759979248 C 15.17251873016357 13.90109825134277 15.08421897888184 14.09671783447266 15.0405387878418 14.17034816741943 C 14.99685859680176 14.24398803710938 14.86751842498779 14.41525745391846 14.61050891876221 14.41525745391846 Z" stroke="none"/><path d="M 8.148138046264648 2.085838317871094 L 8.148147583007813 2.085847854614258 L 1.685787200927734 13.91523742675781 C 1.685784339904785 13.91524314880371 1.685782432556152 13.91524791717529 1.685779571533203 13.91525268554688 C 1.68578052520752 13.91525459289551 1.685781478881836 13.91525650024414 1.685782432556152 13.91525745391846 C 1.685784339904785 13.91525745391846 1.685785293579102 13.91525745391846 1.685787200927734 13.91525745391846 L 14.61050796508789 13.91525745391846 C 14.61050987243652 13.91525745391846 14.61051082611084 13.91525745391846 14.61051273345947 13.91525745391846 C 14.61051464080811 13.91525459289551 14.61051654815674 13.91525173187256 14.61051845550537 13.91524887084961 C 14.61051845550537 13.91524887084961 14.61051750183105 13.91524791717529 14.61051750183105 13.91524791717529 L 8.148138046264648 2.085838317871094 M 8.148147583007813 1.085844993591309 C 8.492142677307129 1.085844993591309 8.836137771606445 1.259372711181641 9.025728225708008 1.606428146362305 L 15.48809719085693 13.43582725524902 C 15.85213756561279 14.10222816467285 15.36985778808594 14.91525745391846 14.61050796508789 14.91525745391846 L 1.685787200927734 14.91525745391846 C 0.9264373779296875 14.91525745391846 0.444157600402832 14.10222816467285 0.8081979751586914 13.43582725524902 L 7.270567893981934 1.606428146362305 C 7.46015739440918 1.259372711181641 7.804152488708496 1.085844993591309 8.148147583007813 1.085844993591309 Z" stroke="none" fill="#707070"/></g></svg>